<svg id="app-store" xmlns="http://www.w3.org/2000/svg" width="261.37" height="71.827" viewBox="0 0 261.37 71.827">
  <g id="Path_28000" data-name="Path 28000" transform="translate(0 0)" fill="#fff">
    <path d="M 226.2609710693359 71.32699584960938 L 35.10947799682617 71.32699584960938 C 30.43841171264648 71.32699584960938 25.9072437286377 70.39129638671875 21.64181137084961 68.54582977294922 C 17.52091026306152 66.76292419433594 13.81964492797852 64.21022796630859 10.64087772369385 60.95862579345703 C 7.461311340332031 57.70629501342773 4.964977741241455 53.91886138916016 3.221144437789917 49.70159530639648 C 1.415544509887695 45.33489227294922 0.5000112056732178 40.69589233398438 0.5000112056732178 35.91349411010742 C 0.5000112056732178 31.13109397888184 1.415544509887695 26.49209403991699 3.221144437789917 22.12539482116699 C 4.964977741241455 17.90812683105469 7.461311340332031 14.12069416046143 10.64087772369385 10.86836051940918 C 13.81964492797852 7.616760730743408 17.52091026306152 5.064060688018799 21.64181137084961 3.281160831451416 C 25.9072437286377 1.435694098472595 30.43841171264648 0.4999940991401672 35.10947799682617 0.4999940991401672 L 226.2609710693359 0.4999940991401672 C 230.9320373535156 0.4999940991401672 235.4632110595703 1.435694098472595 239.7286071777344 3.281160831451416 C 243.8495483398438 5.064060688018799 247.5508117675781 7.616760730743408 250.7295837402344 10.86836051940918 C 253.9091186523438 14.12069416046143 256.4054870605469 17.90812683105469 258.1492919921875 22.12539482116699 C 259.9548645019531 26.49209403991699 260.8704223632813 31.13109397888184 260.8704223632813 35.91349411010742 C 260.8704223632813 40.69589233398438 259.9548645019531 45.33489227294922 258.1492919921875 49.70159530639648 C 256.4054870605469 53.91886138916016 253.9091186523438 57.70629501342773 250.7295837402344 60.95862579345703 C 247.5508117675781 64.21022796630859 243.8495483398438 66.76292419433594 239.7286071777344 68.54582977294922 C 235.4632110595703 70.39129638671875 230.9320373535156 71.32699584960938 226.2609710693359 71.32699584960938 Z" stroke="none"/>
    <path d="M 35.10948181152344 0.9999923706054688 C 30.50711059570313 0.9999923706054688 26.04273986816406 1.921897888183594 21.84037780761719 3.740028381347656 C 17.77931213378906 5.497062683105469 14.13157653808594 8.012962341308594 10.9984130859375 11.21786117553711 C 7.86370849609375 14.42436218261719 5.402511596679688 18.15846252441406 3.683197021484375 22.31645965576172 C 1.90277099609375 26.62229537963867 1 31.19699478149414 1 35.91349411010742 C 1 40.6299934387207 1.90277099609375 45.20469665527344 3.683197021484375 49.51052856445313 C 5.402511596679688 53.66852569580078 7.86370849609375 57.40262603759766 10.9984130859375 60.60912704467773 C 14.13157653808594 63.81402587890625 17.77931213378906 66.32992553710938 21.84037780761719 68.08695983886719 C 26.04273986816406 69.90509033203125 30.50711059570313 70.82699584960938 35.10948181152344 70.82699584960938 L 226.260986328125 70.82699584960938 C 230.8633422851563 70.82699584960938 235.3277130126953 69.90509033203125 239.5300750732422 68.08695983886719 C 243.5911102294922 66.32992553710938 247.2388763427734 63.81402587890625 250.3720397949219 60.60912704467773 C 253.5067443847656 57.40262603759766 255.9679107666016 53.66852569580078 257.6872253417969 49.51052856445313 C 259.4676513671875 45.20469665527344 260.3704223632813 40.6299934387207 260.3704223632813 35.91349411010742 C 260.3704223632813 31.19699478149414 259.4676513671875 26.62229537963867 257.6872253417969 22.31645965576172 C 255.9679107666016 18.15846252441406 253.5067443847656 14.42436218261719 250.3720397949219 11.21786117553711 C 247.2388763427734 8.012962341308594 243.5911102294922 5.497062683105469 239.5300750732422 3.740028381347656 C 235.3277130126953 1.921897888183594 230.8633422851563 0.9999923706054688 226.260986328125 0.9999923706054688 L 35.10948181152344 0.9999923706054688 M 35.10948181152344 -7.62939453125e-06 L 226.260986328125 -7.62939453125e-06 C 245.6514129638672 -7.62939453125e-06 261.3704223632813 16.07902908325195 261.3704223632813 35.91349411010742 C 261.3704223632813 55.74796295166016 245.6514129638672 71.82699584960938 226.260986328125 71.82699584960938 L 35.10948181152344 71.82699584960938 C 15.71903991699219 71.82699584960938 0 55.74796295166016 0 35.91349411010742 C 0 16.07902908325195 15.71903991699219 -7.62939453125e-06 35.10948181152344 -7.62939453125e-06 Z" stroke="none" fill="#e5e5e5"/>
  </g>
  <g id="Group_5339" data-name="Group 5339" transform="translate(53.87 15.572)">
    <path id="Path_28002" data-name="Path 28002" d="M1.383-.027V-11.2H4.609q6.18,0,6.18,5.448A5.369,5.369,0,0,1,9.075-1.6a6.544,6.544,0,0,1-4.6,1.57Zm1.847-9.6v8.035H4.711A4.14,4.14,0,0,0,7.754-2.669a4.085,4.085,0,0,0,1.087-3.04q0-3.92-4.061-3.92ZM17.438.16a5.027,5.027,0,0,1-3.87-1.567,5.754,5.754,0,0,1-1.454-4.076,6.1,6.1,0,0,1,1.481-4.3,5.2,5.2,0,0,1,4.022-1.606,4.914,4.914,0,0,1,3.792,1.559,5.774,5.774,0,0,1,1.438,4.076A6.115,6.115,0,0,1,21.374-1.43,5.108,5.108,0,0,1,17.438.16Zm.086-9.921a3.109,3.109,0,0,0-2.5,1.146A4.533,4.533,0,0,0,14.063-5.6,4.576,4.576,0,0,0,15-2.6a3.016,3.016,0,0,0,2.447,1.138,3.16,3.16,0,0,0,2.533-1.083,4.52,4.52,0,0,0,.927-3.032,4.738,4.738,0,0,0-.9-3.094A3.043,3.043,0,0,0,17.524-9.762ZM38.762-11.2,35.7-.027H33.6L31.474-7.844a5.344,5.344,0,0,1-.164-1.091H31.28a5.294,5.294,0,0,1-.187,1.076L28.957-.027H26.814L23.688-11.2h2.034L27.749-3.02A5.96,5.96,0,0,1,27.9-1.945h.039a6.1,6.1,0,0,1,.218-1.076L30.453-11.2h1.909l2.12,8.246a6.438,6.438,0,0,1,.164,1h.031a6.124,6.124,0,0,1,.179-1.029L36.844-11.2ZM49.79-.027H47.763L42.425-8.242a3.642,3.642,0,0,1-.335-.647h-.047a11.507,11.507,0,0,1,.062,1.535V-.027H40.312V-11.2h2.159l5.159,8.02q.327.5.421.686h.031A9.932,9.932,0,0,1,48-4v-7.2H49.79Zm8.955,0H52.556V-11.2h1.855v9.61h4.333ZM64.489.16a5.027,5.027,0,0,1-3.87-1.567,5.754,5.754,0,0,1-1.454-4.076,6.1,6.1,0,0,1,1.481-4.3,5.2,5.2,0,0,1,4.022-1.606A4.914,4.914,0,0,1,68.46-9.832,5.774,5.774,0,0,1,69.9-5.756,6.115,6.115,0,0,1,68.424-1.43,5.108,5.108,0,0,1,64.489.16Zm.086-9.921a3.109,3.109,0,0,0-2.5,1.146A4.533,4.533,0,0,0,61.114-5.6a4.576,4.576,0,0,0,.935,3A3.016,3.016,0,0,0,64.5-1.461a3.16,3.16,0,0,0,2.533-1.083,4.52,4.52,0,0,0,.927-3.032,4.738,4.738,0,0,0-.9-3.094A3.043,3.043,0,0,0,64.574-9.762ZM80.9-.027H78.868L77.863-2.872h-4.4L72.5-.027H70.474L74.659-11.2h2.089ZM77.372-4.384,75.821-8.842a5.28,5.28,0,0,1-.148-.7h-.031a4.562,4.562,0,0,1-.156.7L73.95-4.384ZM82.438-.027V-11.2h3.227q6.18,0,6.18,5.448A5.369,5.369,0,0,1,90.13-1.6a6.544,6.544,0,0,1-4.6,1.57Zm1.847-9.6v8.035h1.481a4.14,4.14,0,0,0,3.043-1.076A4.085,4.085,0,0,0,89.9-5.709q0-3.92-4.061-3.92Z" transform="translate(47.263 11.391)" fill="#49494b"/>
    <path id="Path_28003" data-name="Path 28003" d="M69.981-.05h-4.8L63.789-4.4H56.833L55.455-.05H50.682L57.8-19.608h5.224Zm-7.2-7.733-2.1-6.574a8.566,8.566,0,0,1-.327-1.759h-.109a7.46,7.46,0,0,1-.341,1.7L57.774-7.783ZM85.488-.05h-4.3V-7.81q0-3.246-2.319-3.246a2.3,2.3,0,0,0-1.841.859,3.274,3.274,0,0,0-.723,2.182V-.05H72V-14.016h4.31v2.21h.055a4.939,4.939,0,0,1,4.487-2.55q4.637,0,4.637,5.756Zm17.076,0h-4.31V-1.973H98.2A4.833,4.833,0,0,1,93.876.291a5.3,5.3,0,0,1-4.214-1.848,7.65,7.65,0,0,1-1.6-5.162,8.327,8.327,0,0,1,1.759-5.551,5.739,5.739,0,0,1,4.61-2.087A3.921,3.921,0,0,1,98.2-12.42h.055v-8.306h4.31ZM98.336-6.842v-1.05a3.3,3.3,0,0,0-.791-2.264,2.612,2.612,0,0,0-2.06-.9,2.6,2.6,0,0,0-2.237,1.125,5.225,5.225,0,0,0-.8,3.089,4.521,4.521,0,0,0,.777,2.837,2.581,2.581,0,0,0,2.155,1,2.592,2.592,0,0,0,2.134-1.05A4.377,4.377,0,0,0,98.336-6.842ZM115.3-10.129a3.739,3.739,0,0,0-1.814-.423,2.613,2.613,0,0,0-2.2,1.03,4.492,4.492,0,0,0-.791,2.8V-.05h-4.31V-14.016h4.31v2.591h.055a3.728,3.728,0,0,1,3.683-2.837,2.775,2.775,0,0,1,1.064.164ZM123.855.291a7.508,7.508,0,0,1-5.49-1.957,7.1,7.1,0,0,1-2-5.312A7.1,7.1,0,0,1,118.44-12.4a7.833,7.833,0,0,1,5.606-1.957A7.417,7.417,0,0,1,129.5-12.4a6.957,6.957,0,0,1,1.978,5.176,7.385,7.385,0,0,1-2.039,5.5A7.591,7.591,0,0,1,123.855.291Zm.109-11.348a2.875,2.875,0,0,0-2.373,1.05,4.631,4.631,0,0,0-.846,2.973q0,4.024,3.246,4.024,3.1,0,3.1-4.133Q127.087-11.056,123.964-11.056Zm12.493-5.169a2.517,2.517,0,0,1-1.787-.648,2.087,2.087,0,0,1-.7-1.589,2.013,2.013,0,0,1,.7-1.582,2.6,2.6,0,0,1,1.787-.614,2.6,2.6,0,0,1,1.794.614,2.022,2.022,0,0,1,.689,1.582,2.079,2.079,0,0,1-.689,1.609A2.56,2.56,0,0,1,136.457-16.226ZM138.585-.05h-4.31V-14.016h4.31Zm17.294,0h-4.31V-1.973h-.055A4.833,4.833,0,0,1,147.191.291a5.3,5.3,0,0,1-4.214-1.848,7.65,7.65,0,0,1-1.6-5.162,8.327,8.327,0,0,1,1.759-5.551,5.739,5.739,0,0,1,4.61-2.087,3.921,3.921,0,0,1,3.764,1.937h.055v-8.306h4.31Zm-4.228-6.792v-1.05a3.3,3.3,0,0,0-.791-2.264,2.612,2.612,0,0,0-2.059-.9,2.6,2.6,0,0,0-2.237,1.125,5.225,5.225,0,0,0-.8,3.089,4.521,4.521,0,0,0,.777,2.837,2.581,2.581,0,0,0,2.155,1,2.592,2.592,0,0,0,2.134-1.05A4.377,4.377,0,0,0,151.651-6.842Z" transform="translate(-1.738 39.346)" fill="#333"/>
    <g id="Group_5330" data-name="Group 5330" transform="translate(0 1.387)">
      <path id="Path_27994" data-name="Path 27994" d="M-362.772,189.787a2.5,2.5,0,0,0-2.5,2.5v11.671a2.5,2.5,0,0,0,2.5,2.5,2.5,2.5,0,0,0,2.5-2.5V192.288A2.5,2.5,0,0,0-362.772,189.787Z" transform="translate(365.273 -176.439)" fill="#28b51e"/>
      <path id="Path_27995" data-name="Path 27995" d="M-.106,189.787a2.5,2.5,0,0,0-2.5,2.5v11.671a2.5,2.5,0,0,0,2.5,2.5,2.5,2.5,0,0,0,2.5-2.5V192.288A2.5,2.5,0,0,0-.106,189.787Z" transform="translate(30.951 -176.439)" fill="#28b51e"/>
      <path id="Path_27996" data-name="Path 27996" d="M-260.766,189.787h-18.34a.834.834,0,0,0-.834.834v13.338a4.168,4.168,0,0,0,3.335,4.085v5.919a2.5,2.5,0,0,0,2.5,2.5,2.5,2.5,0,0,0,2.5-2.5v-5.835h3.335v5.835a2.5,2.5,0,0,0,2.5,2.5,2.5,2.5,0,0,0,2.5-2.5v-5.919a4.168,4.168,0,0,0,3.335-4.085V190.621A.834.834,0,0,0-260.766,189.787Z" transform="translate(286.609 -176.439)" fill="#28b51e"/>
      <path id="Path_27997" data-name="Path 27997" d="M-263.877,22.463l2.032-2.03a.833.833,0,0,0,.02-1.179A.833.833,0,0,0-263,19.233l-.02.021-2.367,2.367a11.409,11.409,0,0,0-9.092,0l-2.367-2.37a.833.833,0,0,0-1.179.021.834.834,0,0,0,0,1.158l2.03,2.032a8.8,8.8,0,0,0-3.943,7.383.834.834,0,0,0,.834.833h18.34a.833.833,0,0,0,.834-.833A8.8,8.8,0,0,0-263.877,22.463Zm-10.229,4.882a.834.834,0,0,1-.834-.834.834.834,0,0,1,.834-.834.834.834,0,0,1,.833.834A.834.834,0,0,1-274.106,27.346Zm8.336,0a.834.834,0,0,1-.833-.834.834.834,0,0,1,.833-.834.834.834,0,0,1,.834.834A.834.834,0,0,1-265.77,27.346Z" transform="translate(286.611 -19)" fill="#28b51e"/>
    </g>
  </g>
</svg>
