<svg xmlns="http://www.w3.org/2000/svg" width="262" height="72" viewBox="0 0 262 72">
  <g id="apple" transform="translate(-0.168 0.086)">
    <g id="Rectangle_1270" data-name="Rectangle 1270" transform="translate(0.169 -0.086)" fill="#fff" stroke="#e5e5e5" stroke-width="1">
      <rect width="262" height="72" rx="36" stroke="none"/>
      <rect x="0.5" y="0.5" width="261" height="71" rx="35.5" fill="none"/>
    </g>
    <g id="Group_5338" data-name="Group 5338" transform="translate(61.153 15.572)">
      <path id="Path_28004" data-name="Path 28004" d="M1.383-.027V-11.2H4.609q6.18,0,6.18,5.448A5.369,5.369,0,0,1,9.075-1.6a6.544,6.544,0,0,1-4.6,1.57Zm1.847-9.6v8.035H4.711A4.14,4.14,0,0,0,7.754-2.669a4.085,4.085,0,0,0,1.087-3.04q0-3.92-4.061-3.92ZM17.438.16a5.027,5.027,0,0,1-3.87-1.567,5.754,5.754,0,0,1-1.454-4.076,6.1,6.1,0,0,1,1.481-4.3,5.2,5.2,0,0,1,4.022-1.606,4.914,4.914,0,0,1,3.792,1.559,5.774,5.774,0,0,1,1.438,4.076A6.115,6.115,0,0,1,21.374-1.43,5.108,5.108,0,0,1,17.438.16Zm.086-9.921a3.109,3.109,0,0,0-2.5,1.146A4.533,4.533,0,0,0,14.063-5.6,4.576,4.576,0,0,0,15-2.6a3.016,3.016,0,0,0,2.447,1.138,3.16,3.16,0,0,0,2.533-1.083,4.52,4.52,0,0,0,.927-3.032,4.738,4.738,0,0,0-.9-3.094A3.043,3.043,0,0,0,17.524-9.762ZM38.762-11.2,35.7-.027H33.6L31.474-7.844a5.344,5.344,0,0,1-.164-1.091H31.28a5.294,5.294,0,0,1-.187,1.076L28.957-.027H26.814L23.688-11.2h2.034L27.749-3.02A5.96,5.96,0,0,1,27.9-1.945h.039a6.1,6.1,0,0,1,.218-1.076L30.453-11.2h1.909l2.12,8.246a6.438,6.438,0,0,1,.164,1h.031a6.124,6.124,0,0,1,.179-1.029L36.844-11.2ZM49.79-.027H47.763L42.425-8.242a3.642,3.642,0,0,1-.335-.647h-.047a11.507,11.507,0,0,1,.062,1.535V-.027H40.312V-11.2h2.159l5.159,8.02q.327.5.421.686h.031A9.932,9.932,0,0,1,48-4v-7.2H49.79Zm8.955,0H52.556V-11.2h1.855v9.61h4.333ZM64.489.16a5.027,5.027,0,0,1-3.87-1.567,5.754,5.754,0,0,1-1.454-4.076,6.1,6.1,0,0,1,1.481-4.3,5.2,5.2,0,0,1,4.022-1.606A4.914,4.914,0,0,1,68.46-9.832,5.774,5.774,0,0,1,69.9-5.756,6.115,6.115,0,0,1,68.424-1.43,5.108,5.108,0,0,1,64.489.16Zm.086-9.921a3.109,3.109,0,0,0-2.5,1.146A4.533,4.533,0,0,0,61.114-5.6a4.576,4.576,0,0,0,.935,3A3.016,3.016,0,0,0,64.5-1.461a3.16,3.16,0,0,0,2.533-1.083,4.52,4.52,0,0,0,.927-3.032,4.738,4.738,0,0,0-.9-3.094A3.043,3.043,0,0,0,64.574-9.762ZM80.9-.027H78.868L77.863-2.872h-4.4L72.5-.027H70.474L74.659-11.2h2.089ZM77.372-4.384,75.821-8.842a5.28,5.28,0,0,1-.148-.7h-.031a4.562,4.562,0,0,1-.156.7L73.95-4.384ZM82.438-.027V-11.2h3.227q6.18,0,6.18,5.448A5.369,5.369,0,0,1,90.13-1.6a6.544,6.544,0,0,1-4.6,1.57Zm1.847-9.6v8.035h1.481a4.14,4.14,0,0,0,3.043-1.076A4.085,4.085,0,0,0,89.9-5.709q0-3.92-4.061-3.92Z" transform="translate(47.31 11.391)" fill="#49494b"/>
      <path id="Path_28005" data-name="Path 28005" d="M54.545-16.226a2.517,2.517,0,0,1-1.787-.648,2.087,2.087,0,0,1-.7-1.589,2.013,2.013,0,0,1,.7-1.582,2.6,2.6,0,0,1,1.787-.614,2.6,2.6,0,0,1,1.794.614,2.022,2.022,0,0,1,.689,1.582,2.079,2.079,0,0,1-.689,1.609A2.56,2.56,0,0,1,54.545-16.226ZM56.672-.05h-4.31V-14.016h4.31ZM68.989.291a9.1,9.1,0,0,1-6.847-2.735A9.818,9.818,0,0,1,59.5-9.57a10.52,10.52,0,0,1,2.687-7.5,9.3,9.3,0,0,1,7.12-2.864,8.877,8.877,0,0,1,6.772,2.741,10.107,10.107,0,0,1,2.585,7.229,10.352,10.352,0,0,1-2.68,7.433A9.2,9.2,0,0,1,68.989.291Zm.191-16.435A4.435,4.435,0,0,0,65.5-14.4a7.251,7.251,0,0,0-1.364,4.6,7.117,7.117,0,0,0,1.364,4.6A4.37,4.37,0,0,0,69.07-3.514a4.414,4.414,0,0,0,3.614-1.644A7.039,7.039,0,0,0,74.021-9.72a7.628,7.628,0,0,0-1.3-4.733A4.225,4.225,0,0,0,69.179-16.144ZM81-.8V-5.164a8.387,8.387,0,0,0,2.578,1.493,8.286,8.286,0,0,0,2.81.5,6.23,6.23,0,0,0,1.453-.15,3.4,3.4,0,0,0,1.037-.416,1.814,1.814,0,0,0,.621-.627,1.565,1.565,0,0,0,.2-.784,1.7,1.7,0,0,0-.327-1.023,3.522,3.522,0,0,0-.893-.832,9.335,9.335,0,0,0-1.343-.737q-.777-.355-1.678-.723A8.562,8.562,0,0,1,82.048-10.8a5.092,5.092,0,0,1-1.125-3.328,5.3,5.3,0,0,1,.614-2.626,5.212,5.212,0,0,1,1.671-1.807A7.491,7.491,0,0,1,85.655-19.6a12.58,12.58,0,0,1,2.946-.334,17.719,17.719,0,0,1,2.707.184,10.647,10.647,0,0,1,2.175.566v4.078a6.578,6.578,0,0,0-1.071-.6,8.483,8.483,0,0,0-1.193-.43A9.1,9.1,0,0,0,90-16.389a8.639,8.639,0,0,0-1.153-.082,6.01,6.01,0,0,0-1.364.143,3.5,3.5,0,0,0-1.037.4,2,2,0,0,0-.655.621,1.471,1.471,0,0,0-.232.812,1.55,1.55,0,0,0,.259.88,2.973,2.973,0,0,0,.737.737,7.816,7.816,0,0,0,1.159.682q.682.334,1.541.689a17.173,17.173,0,0,1,2.107,1.043,7.491,7.491,0,0,1,1.6,1.248,4.861,4.861,0,0,1,1.023,1.589,5.615,5.615,0,0,1,.355,2.08A5.571,5.571,0,0,1,93.723-2.8,5.038,5.038,0,0,1,92.038-1a7.3,7.3,0,0,1-2.475.989,14.306,14.306,0,0,1-2.98.3A16.571,16.571,0,0,1,83.521.019,9.243,9.243,0,0,1,81-.8Z" transform="translate(-3.69 39.346)" fill="#333"/>
      <g id="company_1_" data-name="company (1)" transform="translate(0 1.508)">
        <path id="Path_27998" data-name="Path 27998" d="M56.873,148.669c-5.939-.034-10.851-12.157-10.851-18.332,0-10.085,7.566-12.293,10.482-12.293a12.061,12.061,0,0,1,3.955.973,8.84,8.84,0,0,0,2.258.647,7.027,7.027,0,0,0,1.62-.525,12.984,12.984,0,0,1,4.883-1.18h.011a10.008,10.008,0,0,1,8.375,4.23l.611.918-.879.663c-1.256.948-3.547,2.676-3.547,6.1a6.885,6.885,0,0,0,3.842,6.365c.55.331,1.12.672,1.12,1.419,0,.487-3.891,10.955-9.541,10.955a7.673,7.673,0,0,1-3.222-.782,6.533,6.533,0,0,0-2.868-.691,7.376,7.376,0,0,0-2.271.614,11.122,11.122,0,0,1-3.939.919Z" transform="translate(-46.022 -108.765)" fill="#7a7a7a"/>
        <path id="Path_27999" data-name="Path 27999" d="M262.651,0c.147,5.306-3.647,8.986-7.437,8.756C254.589,4.522,259,0,262.651,0Z" transform="translate(-238.855)" fill="#7a7a7a"/>
      </g>
    </g>
  </g>
</svg>
