<svg xmlns="http://www.w3.org/2000/svg" width="15" height="15" viewBox="0 0 15 15">
  <g id="translate" transform="translate(-0.002 0)">
    <path id="Path_2241" data-name="Path 2241" d="M13.684,3.545H7.24L6.161.3A.439.439,0,0,0,5.744,0H1.32A1.32,1.32,0,0,0,0,1.318v8.818A1.32,1.32,0,0,0,1.32,11.455H6.163l1.07,3.235a.441.441,0,0,0,.42.31h6.031A1.32,1.32,0,0,0,15,13.682V4.863a1.32,1.32,0,0,0-1.318-1.318ZM1.32,10.576a.44.44,0,0,1-.439-.439V1.318A.44.44,0,0,1,1.32.879H5.427l3.223,9.7Zm7.258.879-.861,1.9-.628-1.9Zm5.545,2.227a.44.44,0,0,1-.439.439H8.334L9.66,11.2a.442.442,0,0,0,.017-.32L7.532,4.424h6.152a.44.44,0,0,1,.439.439Z" fill="#666"/>
    <path id="Path_2242" data-name="Path 2242" d="M64.957,122.758H63.639a.439.439,0,0,0,0,.879h.8a1.318,1.318,0,1,1-.311-1.372.439.439,0,0,0,.621-.621A2.2,2.2,0,1,0,65.4,123.2.439.439,0,0,0,64.957,122.758Z" transform="translate(-59.213 -117.455)" fill="#666"/>
    <path id="Path_2243" data-name="Path 2243" d="M304.957,211.879h-1.318v-.439a.439.439,0,1,0-.879,0v.439h-1.318a.439.439,0,1,0,0,.879h2.553a5.522,5.522,0,0,1-.789,1.382c-.075-.1-.149-.205-.221-.311a.439.439,0,1,0-.727.494c.123.181.253.358.381.525-.22.255-.436.485-.626.672a.439.439,0,1,0,.616.627c.015-.015.255-.251.575-.613.312.357.546.592.564.61a.439.439,0,0,0,.622-.621s-.274-.275-.617-.676a5.717,5.717,0,0,0,1.133-2.09h.052a.439.439,0,0,0,0-.879Z" transform="translate(-292.182 -204.818)" fill="#666"/>
  </g>
</svg>
