<svg id="calendar_10_" data-name="calendar (10)" xmlns="http://www.w3.org/2000/svg" width="15.867" height="15.867" viewBox="0 0 15.867 15.867">
  <g id="Group_119" data-name="Group 119" transform="translate(3.4)">
    <g id="Group_118" data-name="Group 118">
      <path id="Path_28156" data-name="Path 28156" d="M102.967,0a.567.567,0,0,0-.567.567V1.7h1.133V.567A.567.567,0,0,0,102.967,0Z" transform="translate(-102.4)"/>
    </g>
  </g>
  <g id="Group_121" data-name="Group 121" transform="translate(11.334)">
    <g id="Group_120" data-name="Group 120">
      <path id="Path_28157" data-name="Path 28157" d="M341.9,0a.567.567,0,0,0-.567.567V1.7h1.133V.567A.567.567,0,0,0,341.9,0Z" transform="translate(-341.333)"/>
    </g>
  </g>
  <g id="Group_123" data-name="Group 123" transform="translate(0 1.7)">
    <g id="Group_122" data-name="Group 122">
      <path id="Path_28158" data-name="Path 28158" d="M14.167,51.2h-1.7v2.267a.567.567,0,1,1-1.133,0V51.2h-6.8v2.267a.567.567,0,1,1-1.133,0V51.2H1.7A1.7,1.7,0,0,0,0,52.9V63.667a1.7,1.7,0,0,0,1.7,1.7H14.167a1.7,1.7,0,0,0,1.7-1.7V52.9A1.7,1.7,0,0,0,14.167,51.2Zm.567,12.467a.567.567,0,0,1-.567.567H1.7a.567.567,0,0,1-.567-.567V56.3h13.6Z" transform="translate(0 -51.2)"/>
    </g>
  </g>
  <g id="Group_125" data-name="Group 125" transform="translate(2.833 7.934)">
    <g id="Group_124" data-name="Group 124">
      <path id="Path_28159" data-name="Path 28159" d="M87.033,238.933H85.9a.567.567,0,0,0,0,1.133h1.133a.567.567,0,0,0,0-1.133Z" transform="translate(-85.333 -238.933)"/>
    </g>
  </g>
  <g id="Group_127" data-name="Group 127" transform="translate(6.8 7.934)">
    <g id="Group_126" data-name="Group 126">
      <path id="Path_28160" data-name="Path 28160" d="M206.5,238.933h-1.133a.567.567,0,1,0,0,1.133H206.5a.567.567,0,1,0,0-1.133Z" transform="translate(-204.8 -238.933)"/>
    </g>
  </g>
  <g id="Group_129" data-name="Group 129" transform="translate(10.767 7.934)">
    <g id="Group_128" data-name="Group 128">
      <path id="Path_28161" data-name="Path 28161" d="M325.967,238.933h-1.133a.567.567,0,0,0,0,1.133h1.133a.567.567,0,1,0,0-1.133Z" transform="translate(-324.267 -238.933)"/>
    </g>
  </g>
  <g id="Group_131" data-name="Group 131" transform="translate(2.833 10.2)">
    <g id="Group_130" data-name="Group 130">
      <path id="Path_28162" data-name="Path 28162" d="M87.033,307.2H85.9a.567.567,0,1,0,0,1.133h1.133a.567.567,0,1,0,0-1.133Z" transform="translate(-85.333 -307.2)"/>
    </g>
  </g>
  <g id="Group_133" data-name="Group 133" transform="translate(6.8 10.2)">
    <g id="Group_132" data-name="Group 132">
      <path id="Path_28163" data-name="Path 28163" d="M206.5,307.2h-1.133a.567.567,0,1,0,0,1.133H206.5a.567.567,0,1,0,0-1.133Z" transform="translate(-204.8 -307.2)"/>
    </g>
  </g>
  <g id="Group_135" data-name="Group 135" transform="translate(10.767 10.2)">
    <g id="Group_134" data-name="Group 134">
      <path id="Path_28164" data-name="Path 28164" d="M325.967,307.2h-1.133a.567.567,0,0,0,0,1.133h1.133a.567.567,0,1,0,0-1.133Z" transform="translate(-324.267 -307.2)"/>
    </g>
  </g>
  <g id="Group_137" data-name="Group 137" transform="translate(2.833 12.467)">
    <g id="Group_136" data-name="Group 136">
      <path id="Path_28165" data-name="Path 28165" d="M87.033,375.467H85.9a.567.567,0,1,0,0,1.133h1.133a.567.567,0,1,0,0-1.133Z" transform="translate(-85.333 -375.467)"/>
    </g>
  </g>
  <g id="Group_139" data-name="Group 139" transform="translate(6.8 12.467)">
    <g id="Group_138" data-name="Group 138">
      <path id="Path_28166" data-name="Path 28166" d="M206.5,375.467h-1.133a.567.567,0,1,0,0,1.133H206.5a.567.567,0,1,0,0-1.133Z" transform="translate(-204.8 -375.467)"/>
    </g>
  </g>
  <g id="Group_141" data-name="Group 141" transform="translate(10.767 12.467)">
    <g id="Group_140" data-name="Group 140">
      <path id="Path_28167" data-name="Path 28167" d="M325.967,375.467h-1.133a.567.567,0,0,0,0,1.133h1.133a.567.567,0,1,0,0-1.133Z" transform="translate(-324.267 -375.467)"/>
    </g>
  </g>
</svg>
