<svg xmlns="http://www.w3.org/2000/svg" width="15.5" height="15.5" viewBox="0 0 15.5 15.5">
  <g id="wall-clock" transform="translate(0.25 0.25)">
    <g id="Group_5789" data-name="Group 5789">
      <g id="Group_5788" data-name="Group 5788">
        <path id="Path_2235" data-name="Path 2235" d="M7.5,0A7.5,7.5,0,1,0,15,7.5,7.509,7.509,0,0,0,7.5,0Zm0,13.905A6.405,6.405,0,1,1,13.905,7.5,6.412,6.412,0,0,1,7.5,13.905Z" fill="#666" stroke="#666" stroke-width="0.5"/>
      </g>
    </g>
    <g id="Group_5791" data-name="Group 5791" transform="translate(6.629 3.699)">
      <g id="Group_5790" data-name="Group 5790">
        <path id="Path_2236" data-name="Path 2236" d="M228.264,128.963h-2.331v-3.228a.538.538,0,1,0-1.076,0V129.5a.538.538,0,0,0,.538.538h2.869a.538.538,0,0,0,0-1.076Z" transform="translate(-224.857 -125.197)" fill="#666" stroke="#666" stroke-width="0.5"/>
      </g>
    </g>
  </g>
</svg>
