<svg xmlns="http://www.w3.org/2000/svg" width="198.262" height="58.574" viewBox="0 0 198.262 58.574">
  <g id="logo" transform="translate(-622.559 -191.372)">
    <g id="Group_78" data-name="Group 78" transform="translate(622.559 191.372)">
      <path id="Path_48" data-name="Path 48" d="M658.306,211.782a24.63,24.63,0,0,0,.306-4.269,16.736,16.736,0,0,0-.578-4.133,19.083,19.083,0,0,0-1.479-3.809,12.943,12.943,0,0,0-2.466-3.3,16.665,16.665,0,0,0-3.452-2.585,17.094,17.094,0,0,0-4.524-1.7,24.551,24.551,0,0,0-5.629-.613,18.426,18.426,0,0,0-5.119.663,13.464,13.464,0,0,0-3.827,1.7,11.344,11.344,0,0,0-2.67,2.534,14.381,14.381,0,0,0-1.769,2.942,17.2,17.2,0,0,0-1,3.13,22.373,22.373,0,0,0-.476,2.891q-.1,1.207-.1,2.466l.238,13.334q.136,7.313.2,13.981l-3.4,2.483,3.572,12.449,9.83-8.3a4.574,4.574,0,0,0,1.446-1.973,4.637,4.637,0,0,0,.255-2.449l-2.16-12.316,10.05-4.155-11.3-2.2-.368-2.86a7.52,7.52,0,0,1-.238-2.33,11.824,11.824,0,0,1,.323-2.16,5.444,5.444,0,0,1,.888-1.888,7.23,7.23,0,0,1,1.48-1.514,6.3,6.3,0,0,1,2.092-1,9.887,9.887,0,0,1,2.738-.357,18.175,18.175,0,0,1,3.945.408,10.659,10.659,0,0,1,3.4,1.395,6.589,6.589,0,0,1,2.367,2.483,6.784,6.784,0,0,1,.561,3.9c-.158,1.6-3.768,15.711-4.766,17.706h5.612c.748-1.27,4.409-14.918,4.919-16.312a22.575,22.575,0,0,0,1.1-4.231Z" transform="translate(-622.559 -191.372)" fill="#09803b"/>
      <path id="Path_49" data-name="Path 49" d="M743.988,276.5l4.995-25.27-6.411-7.615-9.812,32.727a6.667,6.667,0,0,0-.192,3.255,7.015,7.015,0,0,0,1.329,3l9.536,3.3,7.44-9.093Z" transform="translate(-702.168 -229.217)" fill="#09803b"/>
    </g>
    <g id="Group_79" data-name="Group 79" transform="translate(681.589 205.418)">
      <path id="Path_50" data-name="Path 50" d="M856.05,268.371a11.668,11.668,0,0,1-4.516,9.19,19.292,19.292,0,0,1-9.64,4.3,2.949,2.949,0,0,1-.343.027q-.608,0-2.694-3.711t-2.086-4.529c0-.2.132-.318.395-.37a27.9,27.9,0,0,0,5.071-1.48,4.364,4.364,0,0,0,2.746-4.067,6.22,6.22,0,0,0-1.8-3.829q-3.117-3.591-3.38-3.988a10.751,10.751,0,0,1-1.824-6.077q0-4.833,4.463-8.028a20.048,20.048,0,0,1,8.952-3.434c.2-.017.343-.027.449-.027q.395,0,.634.634.69,1.928,3.2,6.973a.623.623,0,0,1,.079.264q0,.449-.475.449a5.3,5.3,0,0,1-.713-.079,5.3,5.3,0,0,0-.766-.079,6.252,6.252,0,0,0-3.327.871,3.1,3.1,0,0,0-1.716,2.8,6.909,6.909,0,0,0,1.9,3.961q3.354,4.226,3.512,4.439a10.608,10.608,0,0,1,1.876,5.785Z" transform="translate(-836.771 -242.353)" fill="#2d2d2d"/>
      <path id="Path_51" data-name="Path 51" d="M947.217,262.691l-.052,18.222q0,.925-.74,1.031-.845.1-3.856.106a25.793,25.793,0,0,1-4.044-.211,1.009,1.009,0,0,1-.871-1.135q0-2.269.079-6.841t.08-6.84q0-3.089-3.143-3.09a5.067,5.067,0,0,0-2.483.845q-1.559.924-1.559,1.928v6.523q0,1.268.052,3.816t.053,3.816q0,.978-.819,1.085t-4.6.106a16.1,16.1,0,0,1-3.116-.211q-.95-.211-.951-.924,0-2.086.027-6.272t.027-6.272q0-8.636-.184-14.288-.079-1.981-.132-3.961a27.133,27.133,0,0,0-.475-3.935,2.531,2.531,0,0,1-.079-.5.518.518,0,0,1,.395-.528,10.424,10.424,0,0,1,2.4-.291q2.113-.079,2.456-.132l4.78-.554q.422,0,.422.554,0,.845-.106,2.3-.106,1.691-.106,2.3-.159,5.97-.159,9.429,0,.529.264.529.052,0,1.347-.924a17.968,17.968,0,0,1,2.931-1.717,9.95,9.95,0,0,1,4.044-.924,8.92,8.92,0,0,1,5.652,1.77A6.223,6.223,0,0,1,947.217,262.691Z" transform="translate(-897.383 -243.672)" fill="#2d2d2d"/>
      <path id="Path_52" data-name="Path 52" d="M1055.311,298.351a13.346,13.346,0,0,1-3.684,9.772,14.287,14.287,0,0,1-19.239.053,12.771,12.771,0,0,1-3.748-9.508,13.919,13.919,0,0,1,3.591-9.944q3.591-3.816,9.719-3.816a13,13,0,0,1,9.667,3.737,13.209,13.209,0,0,1,3.695,9.7Zm-8.662,0a5.688,5.688,0,0,0-1.294-3.684,4.118,4.118,0,0,0-3.354-1.6,4.252,4.252,0,0,0-3.433,1.637,5.911,5.911,0,0,0,0,7.315,4.39,4.39,0,0,0,6.84,0,5.648,5.648,0,0,0,1.243-3.67Z" transform="translate(-975.767 -273.179)" fill="#2d2d2d"/>
      <path id="Path_53" data-name="Path 53" d="M1152.457,295.867q0,1.03-1.135,1.03-.5,0-1.466-.066t-1.439-.066a4.715,4.715,0,0,0-2.984.69,3.642,3.642,0,0,0-.789,2.773q0,1.135.039,3.446t.04,3.446q0,.766.106,2.284t.106,2.258q0,.633-.871.713-1.269.106-3.882.106a40.126,40.126,0,0,1-4.014-.159q-.871-.106-.871-.872,0-2.113.027-6.325t.027-6.326a38.38,38.38,0,0,0-1.135-10.221,1.87,1.87,0,0,1-.053-.395.518.518,0,0,1,.395-.528q1.452-.159,4.251-.581,4.172-.819,4.3-.819.476,0,.608,1.664t.475,1.664q-.37,0,2.17-1.387a10.179,10.179,0,0,1,4.886-1.387q1.479,0,1.479.633a20.642,20.642,0,0,1-.159,2.17q-.159,1.505-.184,2.17,0,.766.027,2.034Q1152.457,295.363,1152.457,295.867Z" transform="translate(-1052.208 -274.151)" fill="#2d2d2d"/>
      <path id="Path_54" data-name="Path 54" d="M1224.942,283.057a21.655,21.655,0,0,1-.2,2.4,21.706,21.706,0,0,0-.2,2.367,1.861,1.861,0,0,1-.158.964,3.2,3.2,0,0,1-.872.608,15.4,15.4,0,0,1-7.553,1.874q-7.632,0-7.633-5.836,0-1.743.132-5.243t.132-5.242q0-1.162-1.347-1.162h-.343q-.238.027-.343.027-1,0-1-.713,0-.422.066-1.294t.066-1.294q0-.554-.066-1.691t-.066-1.69q0-.529,1.69-.581.951-.026,1.03-.529a19.481,19.481,0,0,0,.105-3.169q-.105-3.407-.105-3.248,0-3.063.581-3.064a9.443,9.443,0,0,1,2.034.317,18.864,18.864,0,0,0,2.086.395q1.347.185,4.067.5.66.053.661.449,0,1.057-.172,3.2t-.172,3.221q0,1.294.766,1.294.924,0,2.8-.079t2.826-.079q.581,0,.581.395,0,.608-.132,1.822a18.222,18.222,0,0,0-.132,1.822q0,.634.027,1.848t.027,1.848q0,.554-.766.554-.529,0-1.769-.039t-1.769-.039h-1.982q-.395,0-.395,1.162v1.874q.026,1.268.026,1.874a6.53,6.53,0,0,0,.5,3.064,3.058,3.058,0,0,0,2.8,1.135,8.528,8.528,0,0,0,1.888-.3,8.5,8.5,0,0,1,1.73-.3Q1224.942,282.475,1224.942,283.057Z" transform="translate(-1103.933 -252.628)" fill="#2d2d2d"/>
      <path id="Path_55" data-name="Path 55" d="M1298.431,287.134a1.271,1.271,0,0,1-.395.713,6.1,6.1,0,0,0-1.479-.184,4.7,4.7,0,0,0-2.615.69,2.5,2.5,0,0,0-1.268,2.245,3.952,3.952,0,0,0,1.346,2.351,26.606,26.606,0,0,1,2.509,2.878,7.583,7.583,0,0,1,1.346,4.3,8.626,8.626,0,0,1-.529,2.852,5.565,5.565,0,0,1-1.532,2.43,18.263,18.263,0,0,1-4.569,2.852,13.287,13.287,0,0,1-5.2,1.215q-.529,0-2.367-2.865t-1.836-3.5q0-.238.29-.291l3.724-.69q2.323-.739,2.324-2.429a4.4,4.4,0,0,0-1.347-2.694q-2.4-2.663-2.509-2.826a6.831,6.831,0,0,1-1.339-4.013q0-3.961,4.015-6.734a13.365,13.365,0,0,1,7.685-2.456q.422,0,2.086,2.839a13.776,13.776,0,0,1,1.661,3.312Z" transform="translate(-1159.2 -270.333)" fill="#2d2d2d"/>
    </g>
  </g>
</svg>
