<svg xmlns="http://www.w3.org/2000/svg" xmlns:xlink="http://www.w3.org/1999/xlink" width="201.001" height="59.383" viewBox="0 0 201.001 59.383">
  <defs>
    <linearGradient id="linear-gradient" x1="0.221" y1="1.01" x2="0.654" y2="0.022" gradientUnits="objectBoundingBox">
      <stop offset="0" stop-color="#fff"/>
      <stop offset="1" stop-color="#fff"/>
    </linearGradient>
  </defs>
  <g id="logo" transform="translate(-622.559 -191.372)">
    <g id="Group_78" data-name="Group 78" transform="translate(622.56 191.373)">
      <path id="Path_48" data-name="Path 48" d="M658.8,212.064a24.971,24.971,0,0,0,.31-4.328,16.965,16.965,0,0,0-.586-4.19,19.345,19.345,0,0,0-1.5-3.862,13.122,13.122,0,0,0-2.5-3.345,16.894,16.894,0,0,0-3.5-2.621,17.33,17.33,0,0,0-4.587-1.724,24.89,24.89,0,0,0-5.707-.621,18.681,18.681,0,0,0-5.19.672,13.65,13.65,0,0,0-3.88,1.724,11.5,11.5,0,0,0-2.707,2.569,14.58,14.58,0,0,0-1.793,2.983,17.436,17.436,0,0,0-1.017,3.173,22.668,22.668,0,0,0-.483,2.931q-.1,1.224-.1,2.5l.241,13.518q.138,7.414.207,14.174l-3.449,2.517,3.621,12.621,9.966-8.414a4.638,4.638,0,0,0,1.466-2,4.7,4.7,0,0,0,.259-2.483l-2.19-12.486,10.189-4.212-11.454-2.235-.373-2.9a7.622,7.622,0,0,1-.241-2.362,11.988,11.988,0,0,1,.327-2.19,5.519,5.519,0,0,1,.9-1.914,7.33,7.33,0,0,1,1.5-1.535,6.388,6.388,0,0,1,2.121-1.017,10.024,10.024,0,0,1,2.776-.362,18.425,18.425,0,0,1,4,.414,10.806,10.806,0,0,1,3.449,1.414,6.68,6.68,0,0,1,2.4,2.517,6.879,6.879,0,0,1,.569,3.949c-.16,1.621-3.82,15.928-4.832,17.951h5.69c.758-1.288,4.47-15.124,4.987-16.537a22.892,22.892,0,0,0,1.111-4.289Z" transform="translate(-622.56 -191.373)" fill="url(#linear-gradient)"/>
      <path id="Path_49" data-name="Path 49" d="M744.147,276.952l5.064-25.619-6.5-7.72-9.948,33.179a6.759,6.759,0,0,0-.2,3.3,7.112,7.112,0,0,0,1.347,3.043l9.668,3.345,7.543-9.219Z" transform="translate(-701.751 -229.019)" fill="url(#linear-gradient)"/>
    </g>
    <g id="Group_79" data-name="Group 79" transform="translate(682.405 205.616)">
      <path id="Path_50" data-name="Path 50" d="M856.316,268.73a11.829,11.829,0,0,1-4.578,9.317,19.558,19.558,0,0,1-9.773,4.364,2.99,2.99,0,0,1-.348.027q-.616,0-2.731-3.762t-2.115-4.592c0-.2.134-.322.4-.375a28.284,28.284,0,0,0,5.141-1.5,4.424,4.424,0,0,0,2.784-4.123,6.306,6.306,0,0,0-1.82-3.882q-3.16-3.641-3.427-4.043A10.9,10.9,0,0,1,838,254q0-4.9,4.525-8.139a20.325,20.325,0,0,1,9.076-3.481c.2-.017.348-.027.455-.027q.4,0,.643.643.7,1.955,3.24,7.069a.63.63,0,0,1,.08.268q0,.455-.482.455a5.375,5.375,0,0,1-.723-.08,5.378,5.378,0,0,0-.776-.08,6.338,6.338,0,0,0-3.373.883,3.146,3.146,0,0,0-1.74,2.838q0,1.633,1.928,4.016,3.4,4.284,3.561,4.5a10.755,10.755,0,0,1,1.9,5.865Z" transform="translate(-836.771 -242.357)" fill="url(#linear-gradient)"/>
      <path id="Path_51" data-name="Path 51" d="M947.587,262.947l-.053,18.474q0,.938-.75,1.045-.857.106-3.909.107a26.149,26.149,0,0,1-4.1-.214,1.023,1.023,0,0,1-.883-1.151q0-2.3.08-6.935t.081-6.935q0-3.132-3.186-3.133a5.137,5.137,0,0,0-2.517.857q-1.58.937-1.58,1.955v6.613q0,1.285.053,3.869t.054,3.869q0,.991-.83,1.1t-4.659.107a16.327,16.327,0,0,1-3.159-.214q-.963-.214-.964-.937,0-2.115.027-6.359t.027-6.359q0-8.755-.187-14.485-.08-2.008-.134-4.016a27.511,27.511,0,0,0-.482-3.989,2.564,2.564,0,0,1-.08-.509.525.525,0,0,1,.4-.535,10.568,10.568,0,0,1,2.436-.295q2.142-.08,2.49-.134l4.846-.562q.428,0,.428.562,0,.857-.107,2.329-.107,1.714-.107,2.329-.161,6.052-.161,9.559,0,.536.268.536.053,0,1.366-.937a18.215,18.215,0,0,1,2.972-1.741,10.087,10.087,0,0,1,4.1-.937,9.044,9.044,0,0,1,5.73,1.794A6.309,6.309,0,0,1,947.587,262.947Z" transform="translate(-897.064 -243.669)" fill="url(#linear-gradient)"/>
      <path id="Path_52" data-name="Path 52" d="M1055.68,298.537a13.53,13.53,0,0,1-3.735,9.907,14.484,14.484,0,0,1-19.505.054,12.948,12.948,0,0,1-3.8-9.639,14.111,14.111,0,0,1,3.641-10.081q3.641-3.869,9.853-3.869a13.179,13.179,0,0,1,9.8,3.789,13.391,13.391,0,0,1,3.746,9.839Zm-8.782,0a5.766,5.766,0,0,0-1.312-3.735,4.175,4.175,0,0,0-3.4-1.62,4.311,4.311,0,0,0-3.481,1.66,5.993,5.993,0,0,0,0,7.416,4.451,4.451,0,0,0,6.935,0,5.726,5.726,0,0,0,1.26-3.721Z" transform="translate(-975.037 -273.021)" fill="url(#linear-gradient)"/>
      <path id="Path_53" data-name="Path 53" d="M1152.71,296q0,1.044-1.151,1.044-.509,0-1.486-.067t-1.459-.067a4.78,4.78,0,0,0-3.025.7,3.693,3.693,0,0,0-.8,2.811q0,1.151.04,3.494t.04,3.494q0,.777.107,2.316t.107,2.289q0,.642-.883.723-1.286.107-3.936.107a40.667,40.667,0,0,1-4.07-.161q-.883-.107-.883-.884,0-2.142.027-6.412t.027-6.413a38.909,38.909,0,0,0-1.151-10.362,1.905,1.905,0,0,1-.054-.4.525.525,0,0,1,.4-.535q1.472-.161,4.31-.589,4.23-.83,4.364-.83.482,0,.616,1.687t.482,1.687q-.375,0,2.2-1.406a10.319,10.319,0,0,1,4.953-1.406q1.5,0,1.5.642a20.883,20.883,0,0,1-.161,2.2q-.161,1.526-.187,2.2,0,.777.027,2.062Q1152.71,295.489,1152.71,296Z" transform="translate(-1051.076 -273.988)" fill="url(#linear-gradient)"/>
      <path id="Path_54" data-name="Path 54" d="M1225.21,283.423a21.958,21.958,0,0,1-.2,2.436,22.029,22.029,0,0,0-.2,2.4,1.886,1.886,0,0,1-.16.977,3.247,3.247,0,0,1-.884.616,15.614,15.614,0,0,1-7.658,1.9q-7.737,0-7.738-5.917,0-1.767.134-5.315t.134-5.314q0-1.178-1.366-1.178h-.348q-.241.027-.348.027-1.017,0-1.017-.723,0-.428.067-1.312t.067-1.312q0-.562-.067-1.714t-.067-1.713q0-.536,1.713-.589.964-.026,1.044-.536a19.771,19.771,0,0,0,.107-3.213q-.107-3.454-.107-3.293,0-3.105.589-3.106a9.575,9.575,0,0,1,2.062.321,19.12,19.12,0,0,0,2.115.4q1.365.188,4.123.509.669.054.67.455,0,1.072-.174,3.24t-.174,3.266q0,1.312.777,1.312.937,0,2.838-.08t2.865-.08q.589,0,.589.4,0,.616-.134,1.847a18.506,18.506,0,0,0-.134,1.847q0,.643.027,1.874t.027,1.874q0,.562-.776.562-.536,0-1.794-.04t-1.793-.04h-2.009q-.4,0-.4,1.178v1.9q.026,1.285.026,1.9a6.62,6.62,0,0,0,.509,3.106,3.1,3.1,0,0,0,2.838,1.151,8.645,8.645,0,0,0,1.914-.308,8.621,8.621,0,0,1,1.754-.308Q1225.21,282.833,1225.21,283.423Z" transform="translate(-1102.529 -252.578)" fill="url(#linear-gradient)"/>
      <path id="Path_55" data-name="Path 55" d="M1298.66,287.219a1.288,1.288,0,0,1-.4.723,6.179,6.179,0,0,0-1.5-.187,4.767,4.767,0,0,0-2.651.7,2.54,2.54,0,0,0-1.285,2.276,4.005,4.005,0,0,0,1.365,2.383,26.983,26.983,0,0,1,2.544,2.918,7.688,7.688,0,0,1,1.365,4.364,8.743,8.743,0,0,1-.536,2.891,5.643,5.643,0,0,1-1.553,2.464,18.514,18.514,0,0,1-4.632,2.891,13.471,13.471,0,0,1-5.275,1.232q-.536,0-2.4-2.9t-1.861-3.547q0-.241.294-.3l3.776-.7q2.355-.749,2.356-2.463a4.456,4.456,0,0,0-1.366-2.731q-2.436-2.7-2.544-2.865A6.925,6.925,0,0,1,1283,290.3q0-4.016,4.07-6.827a13.549,13.549,0,0,1,7.791-2.49q.428,0,2.115,2.878a13.965,13.965,0,0,1,1.684,3.358Z" transform="translate(-1157.505 -270.19)" fill="url(#linear-gradient)"/>
    </g>
  </g>
</svg>
