<svg id="help" xmlns="http://www.w3.org/2000/svg" width="22" height="22" viewBox="0 0 22 22">
  <path id="Path_36083" data-name="Path 36083" d="M12,1A11,11,0,1,0,23,12,11,11,0,0,0,12,1Zm-.357,17.045a1.154,1.154,0,0,1,0-2.308,1.154,1.154,0,0,1,0,2.308Zm1.709-5.838a1.882,1.882,0,0,0-.84,1.877c0,.284-.151.616-.887.616-.616,0-.827-.224-.827-1.007a2.736,2.736,0,0,1,1.007-2.282c.5-.422,1.335-.887,1.335-1.7,0-.689-.6-1.02-1.352-1.02-1.533,0-1.2,1.154-2.011,1.154a.861.861,0,0,1-.9-.857c0-.809.93-2.011,2.958-2.011,1.92,0,3.195,1.063,3.195,2.476A3.848,3.848,0,0,1,13.352,12.207Z" transform="translate(-1 -1)"/>
</svg>
