<svg xmlns="http://www.w3.org/2000/svg" width="11.334" height="13.585" viewBox="0 0 11.334 13.585">
  <g id="user_1_" data-name="user (1)" transform="translate(0 0)">
    <path id="Path_36074" data-name="Path 36074" d="M90.3,6.544a3.166,3.166,0,0,0,2.314-.959,3.166,3.166,0,0,0,.959-2.313A3.166,3.166,0,0,0,92.617.959a3.271,3.271,0,0,0-4.627,0,3.166,3.166,0,0,0-.959,2.313,3.166,3.166,0,0,0,.959,2.314A3.167,3.167,0,0,0,90.3,6.544Zm0,0" transform="translate(-84.723 0)"/>
    <path id="Path_36075" data-name="Path 36075" d="M11.306,251.2a8.08,8.08,0,0,0-.11-.858,6.762,6.762,0,0,0-.211-.863,4.262,4.262,0,0,0-.355-.8,3.037,3.037,0,0,0-.535-.7,2.359,2.359,0,0,0-.769-.483,2.656,2.656,0,0,0-.981-.178,1,1,0,0,0-.532.226c-.159.1-.346.224-.554.357a3.174,3.174,0,0,1-.717.316,2.784,2.784,0,0,1-1.753,0,3.167,3.167,0,0,1-.716-.316c-.206-.132-.393-.252-.555-.357a1,1,0,0,0-.532-.226,2.653,2.653,0,0,0-.981.178,2.356,2.356,0,0,0-.769.483,3.038,3.038,0,0,0-.535.7,4.271,4.271,0,0,0-.355.8,6.781,6.781,0,0,0-.211.863,8.053,8.053,0,0,0-.11.859c-.018.26-.027.53-.027.8a2.256,2.256,0,0,0,.67,1.707,2.412,2.412,0,0,0,1.726.63H8.938a2.411,2.411,0,0,0,1.726-.63,2.255,2.255,0,0,0,.67-1.707c0-.274-.009-.544-.027-.8Zm0,0" transform="translate(0 -240.754)"/>
  </g>
</svg>
